<svg width="24" height="24" viewBox="0 0 24 24" xmlns="http://www.w3.org/2000/svg"><title>Group 4@2x</title><desc>Created with Sketch.</desc><g fill="none"><g><path d="M0 0h24v24h-24z"/><path d="M19.672 6.093c-.482-1.351-1.569-2.398-2.87-2.841-1.698-.578-3.318-.111-4.469.909-.192.17-.481.179-.673.009-.81-.715-1.854-1.141-2.994-1.141-2.577 0-4.666 2.193-4.666 4.913 0 1.225.426 2.412 1.127 3.192l6.603 6.44c.161.19.443.189.603-.002l6.43-6.437c1.102-1.138 1.588-3.136.909-5.04z" fill="#E91E63" fill-rule="nonzero"/></g></g></svg>